<svg class="ionicon" viewBox="0 0 317.48 317.48" width="160mm" height="160mm" xmlns="http://www.w3.org/2000/svg"><title>Cart</title><g fill="none" stroke="currentColor" stroke-linecap="round" stroke-linejoin="round" stroke-width="32"><path style="stroke:#009e9b;stroke-width:32.1891;stroke-miterlimit:4;stroke-dasharray:none;stroke-opacity:1" d="M175.75 394.05a16.03 16.03 0 1 0 0 32.06 16.03 16.03 0 1 0 0-32.06zm222.99 0a16.03 16.03 0 1 0 0 32.06 16.03 16.03 0 1 0 0-32.06z" transform="matrix(.77514 0 0 .78082 -32.812 -42.92)"/><path d="M48 80h64l48 272h256m-256-64h249.44a8 8 0 0 0 7.85-6.43l28.8-144a8 8 0 0 0-7.85-9.57H128" style="stroke:#009e9b;stroke-width:11.3386;stroke-miterlimit:4;stroke-dasharray:none;stroke-opacity:1" transform="matrix(.77514 0 0 .78082 -32.812 -42.92)"/><path style="stroke:#009e9b;stroke-width:48.7822;stroke-miterlimit:4;stroke-dasharray:none;stroke-opacity:1" d="M195.59 204.37a24.3 24.3 0 1 0 0 48.6 24.3 24.3 0 1 0 0-48.6z" transform="matrix(.77514 0 0 .78082 -32.812 -42.92)"/><path style="stroke:#009e9b;stroke-width:28.8018;stroke-miterlimit:4;stroke-dasharray:none;stroke-opacity:1" d="M273.7 238.15a14.34 14.34 0 1 0 0 28.69 14.34 14.34 0 1 0 0-28.69z" transform="matrix(.77514 0 0 .78082 -32.812 -42.92)"/><path style="stroke:#009e9b;stroke-width:32.1891;stroke-miterlimit:4;stroke-dasharray:none;stroke-opacity:1" d="M363 232.03a16.03 16.03 0 1 0 0 32.06 16.03 16.03 0 1 0 0-32.06z" transform="matrix(.77514 0 0 .78082 -32.812 -42.92)"/><path style="stroke:#009e9b;stroke-width:40.682;stroke-miterlimit:4;stroke-dasharray:none;stroke-opacity:1" d="M275.22 159.05a20.26 20.26 0 1 0 0 40.52 20.26 20.26 0 1 0 0-40.52z" transform="matrix(.77514 0 0 .78082 -32.812 -42.92)"/></g></svg>
