<svg width="160mm" height="160mm" viewBox="0 0 84 84" xmlns="http://www.w3.org/2000/svg"><defs><path id="a" d="M82.82 25.04h136.74v188.04H82.82z"/><path id="b" d="M82.82 25.04h136.74v188.04H82.82z"/><path id="c" d="M82.82 25.04h136.74v188.04H82.82z"/></defs><path style="fill:none;stroke:#009e9c;stroke-width:.264999;stroke-opacity:1" d="M35.24 1.2a32.41 32.41 0 1 0 0 64.83 32.41 32.41 0 1 0 0-64.82z" transform="translate(.376 .15) scale(.86097)"/><text xml:space="preserve" transform="translate(-13.734 -7.637) scale(.35656)" style="font-size:133.333px;line-height:1.25;font-family:sans-serif;word-spacing:0;white-space:pre;shape-inside:url(#a);fill:#009e9c;fill-opacity:1"><tspan x="82.82" y="143.011">$</tspan></text><path style="fill:none;stroke:#009e9c;stroke-width:.264999;stroke-opacity:1" d="M35.24 1.2a32.41 32.41 0 1 0 0 64.83 32.41 32.41 0 1 0 0-64.82z" transform="translate(54.542 39.415) scale(.41524)"/><text xml:space="preserve" transform="translate(47.737 35.66) scale(.17197)" style="font-size:133.333px;line-height:1.25;font-family:sans-serif;word-spacing:0;white-space:pre;shape-inside:url(#b);fill:#009e9c;fill-opacity:1"><tspan x="82.82" y="143.011">$</tspan></text><path style="fill:none;stroke:#009e9c;stroke-width:.264999;stroke-opacity:1" d="M35.24 1.2a32.41 32.41 0 1 0 0 64.83 32.41 32.41 0 1 0 0-64.82z" transform="translate(36.631 56.664) scale(.25132)"/><text xml:space="preserve" transform="translate(32.513 54.39) scale(.10408)" style="font-size:133.333px;line-height:1.25;font-family:sans-serif;word-spacing:0;white-space:pre;shape-inside:url(#c);fill:#009e9c;fill-opacity:1"><tspan x="82.82" y="143.011">$</tspan></text></svg>
