<svg width="24mm" height="24mm" viewBox="0 0 24 24" xmlns="http://www.w3.org/2000/svg"><defs><path id="a" d="M43.6 60.14h299.42v277H43.59z"/></defs><text xml:space="preserve" transform="matrix(.24504 0 0 .24616 -10.753 -8.232)" style="font-style:normal;font-variant:normal;font-weight:400;font-stretch:normal;font-size:42.6667px;line-height:1.25;font-family:Jomolhari;-inkscape-font-specification:Jomolhari;word-spacing:0;white-space:pre;shape-inside:url(#a);fill:#009e9c;fill-opacity:1;stroke:url(#linearGradient42197);stroke-width:1.00157;stroke-miterlimit:4;stroke-dasharray:none;stroke-opacity:1"><tspan x="43.594" y="97.942">BH</tspan></text><g transform="matrix(1 0 0 .99592 -10.231 -6.968)"><rect style="fill:#009e9c;fill-opacity:1;stroke:none;stroke-width:.247217;stroke-miterlimit:4;stroke-dasharray:none;stroke-opacity:1" width="1" height="8" x="28.231" y="15.03" ry=".575"/><rect style="fill:#009e9c;fill-opacity:1;stroke:none;stroke-width:.243214;stroke-miterlimit:4;stroke-dasharray:none;stroke-opacity:1" width=".968" height="8" x="17.187" y="-34.169" ry=".575" transform="rotate(89.798) skewX(.066)"/><rect style="fill:#009e9c;fill-opacity:1;stroke:none;stroke-width:.246862;stroke-miterlimit:4;stroke-dasharray:none;stroke-opacity:1" width=".997" height="8" x="20.044" y="-34.225" ry=".575" transform="rotate(89.983) skewX(.007)"/><rect style="fill:#009e9c;fill-opacity:1;stroke:none;stroke-width:.245022;stroke-miterlimit:4;stroke-dasharray:none;stroke-opacity:1" width=".982" height="8" x="18.46" y="-34.267" ry=".575" transform="rotate(90.108) skewX(-.04)"/><rect style="fill:#009e9c;fill-opacity:1;stroke:none;stroke-width:.247217;stroke-miterlimit:4;stroke-dasharray:none;stroke-opacity:1" width="1" height="8" x="31.231" y="15.03" ry=".575"/><rect style="fill:#009e9c;fill-opacity:1;stroke:none;stroke-width:.247722;stroke-miterlimit:4;stroke-dasharray:none;stroke-opacity:1" width="1" height="8.033" x="29.731" y="15.03" ry=".577"/><rect style="fill:#bfbfbf;fill-opacity:1;stroke:none;stroke-width:.256657;stroke-miterlimit:4;stroke-dasharray:none;stroke-opacity:1" width="6" height="6" x="27.231" y="16.03" ry=".564"/></g></svg>
