<svg viewBox="0 0 317.48 317.48" xml:space="preserve" width="160mm" height="160mm" xmlns="http://www.w3.org/2000/svg"><path d="M467.03 229.69h-30.62v-15.31a7.66 7.66 0 0 0-7.66-7.66h-15.31v-38.28C413.44 75.56 337.88 0 245 0S76.56 75.56 76.56 168.44v38.28H61.25a7.66 7.66 0 0 0-7.66 7.65v15.32H22.97a7.66 7.66 0 0 0-7.66 7.65v99.53a7.66 7.66 0 0 0 7.66 7.66h30.62v15.31a7.66 7.66 0 0 0 7.66 7.66h45.94a7.66 7.66 0 0 0 7.65-7.66V214.38a7.66 7.66 0 0 0-7.65-7.66H91.88v-38.28C91.88 84 160.56 15.3 245 15.3S398.13 84 398.13 168.43v38.28H382.8a7.66 7.66 0 0 0-7.65 7.65v145.47a7.66 7.66 0 0 0 7.65 7.66h15.31v30.63a38.33 38.33 0 0 1-38.28 38.28h-77.2a46 46 0 0 0-45.3-38.29 45.99 45.99 0 0 0-45.93 45.94A45.99 45.99 0 0 0 237.34 490a46 46 0 0 0 45.3-38.28h77.2a53.65 53.65 0 0 0 53.6-53.6V367.5h15.31a7.66 7.66 0 0 0 7.66-7.66v-15.3h30.62a7.66 7.66 0 0 0 7.66-7.66v-99.54a7.66 7.66 0 0 0-7.66-7.65zM53.6 329.22H30.62V245H53.6Zm45.94-107.19V352.2H68.91V222.03Zm137.8 252.67a30.66 30.66 0 0 1-30.62-30.63 30.66 30.66 0 0 1 30.62-30.62 30.66 30.66 0 0 1 30.63 30.62 30.66 30.66 0 0 1-30.63 30.63zm183.75-122.5h-30.62V222.03h30.62zm38.29-22.97H436.4V245h22.96z" style="fill:#009e9b;fill-opacity:1;stroke-width:.796805;stroke-miterlimit:4;stroke-dasharray:none" transform="matrix(.6582 0 0 .64792 -2.52 0)"/><path style="fill:#009e9b;fill-opacity:1;stroke:#009e9b;stroke-width:16.3748;stroke-miterlimit:4;stroke-dasharray:none;stroke-opacity:1" d="M232.63 473.94c-5.36-.78-12.25-4.31-16.3-8.36-6.68-6.67-9.38-13.68-8.96-23.27.24-5.42.5-6.4 2.95-11.36 9.1-18.37 32.71-22.82 47.53-8.96a28.82 28.82 0 0 1 9.54 21.94 30.1 30.1 0 0 1-34.76 30.01z" transform="matrix(.6582 0 0 .64792 -2.52 0)"/><path style="fill:#009e9b;fill-opacity:1;stroke-width:2.89468;stroke-miterlimit:4;stroke-dasharray:none" d="M234.76 474.53a30.72 30.72 0 0 1-27.83-27.38 39 39 0 0 1 .27-8.17 30.69 30.69 0 0 1 25.64-25.16 43.8 43.8 0 0 1 7.54-.17 31.5 31.5 0 0 1 15.92 6.45 39.6 39.6 0 0 1 4.71 4.68 30.46 30.46 0 0 1 .69 37.72 37.26 37.26 0 0 1-6.02 5.99 30.62 30.62 0 0 1-15.38 6c-1 .1-4.62.13-5.54.04zm5.82-.39a30 30 0 0 0 18.27-8.88 30.2 30.2 0 0 0 8.38-17.57c.22-1.63.19-6.4-.06-8.08a29.02 29.02 0 0 0-6.14-14.31 42.07 42.07 0 0 0-4.98-4.95 29.63 29.63 0 0 0-23.7-6.08 29.66 29.66 0 0 0-16.03 8.31 29.05 29.05 0 0 0-5.97 8.25c-2.33 4.59-2.7 5.88-2.97 10.3-.53 8.84 1.24 15.1 6 21.26a42.89 42.89 0 0 0 5.58 5.53c3.87 2.88 8.83 5.17 12.86 5.93 2.55.49 5.75.6 8.76.3z" transform="matrix(.6582 0 0 .64792 -2.52 0)"/><path style="fill:#009e9b;fill-opacity:1;stroke-width:.255856;stroke-miterlimit:4;stroke-dasharray:none" d="M267.96 443.9v-.01.04-.02zm-.68 6.3a30.4 30.4 0 0 0-.06-12.54l.03-.01h.04l.05.27a30.84 30.84 0 0 1 .02 12.2l-.01.09h-.04c-.03 0-.03 0-.03-.02zm.02 0 .03-.21a30.51 30.51 0 0 0-.04-12.03c-.06-.3-.06-.32-.02-.3a25.5 25.5 0 0 1 .29 1.46 30.68 30.68 0 0 1-.22 11.07c0 .02-.02.02-.04.01zm0 0 .02-.16a31.78 31.78 0 0 0 .56-7.26c-.1-1.85-.26-3.14-.58-4.77-.07-.34-.07-.36-.04-.36a30.39 30.39 0 0 1 .04 12.56z" transform="matrix(.6582 0 0 .64792 -2.52 0)"/></svg>
