<svg viewBox="0 0 317.48 317.48" xml:space="preserve" width="160mm" height="160mm" xmlns="http://www.w3.org/2000/svg"><path style="fill:#009e9b;fill-opacity:1;stroke:none;stroke-width:.688284;stroke-opacity:1" d="M10.63 62.36C4.77 62.36 0 67.16 0 73.07v132.65c0 5.9 4.77 10.7 10.63 10.7H29.9a27.2 27.2 0 0 0-1.99 6.23h-.05a.96.96 0 0 1-.05.39c.01.07-.01.14-.07.26a.92.92 0 0 1-.04.15c0 .07-.03.13-.06.2v.01l-.02.07v.07c0 .1-.01.17-.04.25v2.58c.01.12 0 .24-.04.35v.02c.01.02 0 .05 0 .07v3.02l-.02.22-.03.1.01.15v.54l.03.03c.02.16.03.13 0 .26v.01l.01-.03c.02.05.05.11.05.17v.01l.02.04.01.12v.04l.05.2-.01-.1a7.37 7.37 0 0 1 .04.17c.03.05.04.11.07.2a.4.4 0 0 1 .04.1v.18l.03.06c.01.13.02.1 0 .2v.26h.07a27.18 27.18 0 0 0 26.6 22.1 27.18 27.18 0 0 0 26.58-22.1h79.32a10.6 10.6 0 0 0 9.3 5.53h43.88c4 0 7.48-2.24 9.3-5.53h13.48a27.18 27.18 0 0 0 26.59 22.1 27.18 27.18 0 0 0 26.59-22.1h22.78a5.16 5.16 0 0 0 5.14-5.18v-16.58c0-2.87-2.3-5.19-5.14-5.19h-.35V176.2a27.2 27.2 0 0 0-7.93-19.3l-3.58-3.6-12.79-47.26A21.67 21.67 0 0 0 266.86 90H229.7V73.07c0-5.9-4.77-10.7-10.63-10.7H10.63zm17.02 161.29v-.06.06zM10.63 72.72h208.45c.2 0 .35.16.35.35v133H70.84a26.81 26.81 0 0 0-32.65 0H10.63a.34.34 0 0 1-.34-.35v-33.55c-.03-.1-.03-.12 0-.16v-.36c-.12-.25-.18-.54-.25-.8-.23-.91-.1-1.27.25-1.31V73.07c0-.19.15-.35.34-.35zm90.22 18.26a23.46 23.46 0 0 0-23.46 23.46 23.46 23.46 0 0 0 23.46 23.46 23.46 23.46 0 0 0 23.46-23.46 23.46 23.46 0 0 0-23.46-23.46zm-57.33.26a24.7 24.7 0 0 0-24.7 24.7 24.7 24.7 0 0 0 24.7 24.69 24.7 24.7 0 0 0 24.7-24.7 24.7 24.7 0 0 0-24.7-24.69zm186.2 9.12h37.14c4.3 0 8.15 2.47 10.06 6.22h-30.41a5.16 5.16 0 0 0-5.14 5.18v38.69c0 5.9 4.77 10.7 10.63 10.7h41.75l3.04 3.07a16.87 16.87 0 0 1 4.92 11.97v13.3h-5.83a5.16 5.16 0 0 0-5.14 5.18c0 2.86 2.3 5.18 5.14 5.18h5.83v6.21h-22.29l-.13.01a26.8 26.8 0 0 0-32.65 0H229.7v-105.7zm-61.92 8.48a47.56 47.56 0 0 0-47.56 47.56 47.56 47.56 0 0 0 47.56 47.56 47.56 47.56 0 0 0 47.56-47.56 47.56 47.56 0 0 0-47.56-47.56zm112.17 8.07 9.18 33.88H252a.35.35 0 0 1-.35-.34v-33.5h27.77c.19 0 .37-.02.55-.04zM84.62 141.77a30.71 30.71 0 0 0-30.71 30.7 30.71 30.71 0 0 0 30.7 30.72 30.71 30.71 0 0 0 30.71-30.71 30.71 30.71 0 0 0-30.7-30.71zm-30.1 69.13c9.26 0 16.8 7.6 16.8 16.93s-7.54 16.92-16.8 16.92c-9.27 0-16.8-7.59-16.8-16.92 0-9.34 7.53-16.93 16.8-16.93zm208.45 0c9.26 0 16.8 7.6 16.8 16.93s-7.54 16.92-16.8 16.92c-9.27 0-16.8-7.59-16.8-16.92 0-9.34 7.53-16.93 16.8-16.93zM79.1 216.43h79.99l-.02.34v5.88H81.1a27.2 27.2 0 0 0-1.99-6.22zm90.6 0h43.89c.18 0 .34.15.34.34v11.06c0 .19-.16.34-.34.34H169.7a.34.34 0 0 1-.34-.34v-11.06c0-.19.15-.34.34-.34zm54.5 0h14.16a27.2 27.2 0 0 0-2 6.22h-12.15v-5.88l-.01-.34zm63.36 0h19.63v6.22h-17.64a27.2 27.2 0 0 0-2-6.22zM27.75 223.3l-.02.04.02-.03zm-.2.57.03.08-.01-.04-.01-.04zm-8.39.81c-.03 0-.04.02-.02.02h.06a.97.97 0 0 0-.04-.02zm8.3 2.02.08.25v-.01a.7.7 0 0 0-.03-.17.28.28 0 0 0-.04-.07zm-4.96 1.77-.02.02.02-.02zm4.92 2.48.03.04-.01-.02a.1.1 0 0 0-.02-.02zm.3 1.34c.01.04.03.08.06.11a.8.8 0 0 0-.03-.07.16.16 0 0 0-.03-.04zm.01.67.03.04h.01a.24.24 0 0 0-.04-.04z"/></svg>
